<?xml version="1.0" encoding="utf-8"?>
<!-- Generator: Adobe Illustrator 24.1.1, SVG Export Plug-In . SVG Version: 6.00 Build 0)  -->
<svg version="1.0" id="Layer_1" xmlns="http://www.w3.org/2000/svg" xmlns:xlink="http://www.w3.org/1999/xlink" x="0px" y="0px"
	 viewBox="0 0 348.98 233.31" enable-background="new 0 0 348.98 233.31" xml:space="preserve">
<g>
	<g>
		<g>
			<path fill="#609A3E" d="M260.72,158.48c-0.8-0.28-1.24-0.47-1.24-0.47c0.4-0.14,0.83-0.32,1.29-0.54
				c6.24-2.98,17.26-13.38,28.86-45.07c12.45-34.01,31.7-23.19,31.7-23.19c-10.04,4.77-8.2,27.37-23.23,53.4
				C285.13,165.06,265.76,160.22,260.72,158.48z"/>
			<g>
				
					<linearGradient id="SVGID_1_" gradientUnits="userSpaceOnUse" x1="2726.7859" y1="-3504.0564" x2="2726.7859" y2="-3560.6479" gradientTransform="matrix(0.8492 0.5282 -0.5282 0.8492 -3903.1511 1700.9415)">
					<stop  offset="5.181350e-03" style="stop-color:#3C6127"/>
					<stop  offset="0.4531" style="stop-color:#3D6328"/>
					<stop  offset="0.6461" style="stop-color:#426A2A"/>
					<stop  offset="0.7902" style="stop-color:#4A772D"/>
					<stop  offset="0.9091" style="stop-color:#568832"/>
					<stop  offset="1" style="stop-color:#639C38"/>
				</linearGradient>
				<path fill="url(#SVGID_1_)" d="M260.72,158.48c-0.8-0.28-1.24-0.47-1.24-0.47c0.4-0.14,0.83-0.32,1.29-0.54
					c9.63-2.48,21.52-8.55,27.56-20.6c4.63-9.21,11.64-28.41,11.71-28.6l0.93,0.33c-0.07,0.19-7.11,19.45-11.76,28.71
					C282.96,149.75,270.63,155.98,260.72,158.48z"/>
			</g>
		</g>
		<g>
			<path fill="#609A3E" d="M306.15,164.67c-30.91,16.82-44.06-7.83-45.05-9.8c-0.04-0.09-0.06-0.13-0.06-0.13
				c0.92,0.15,1.83,0.26,2.72,0.31c23.79,1.73,37.97-25.7,54.68-35.69c17.33-10.37,30.54,2.63,30.54,2.63
				C332.55,116.57,338.33,147.15,306.15,164.67z"/>
			<g>
				
					<linearGradient id="SVGID_2_" gradientUnits="userSpaceOnUse" x1="3130.0706" y1="-6183.2129" x2="3130.0706" y2="-6254.2329" gradientTransform="matrix(0.6206 0.7842 -0.7842 0.6206 -6523.145 1546.6069)">
					<stop  offset="5.181350e-03" style="stop-color:#3C6127"/>
					<stop  offset="1" style="stop-color:#639C38"/>
				</linearGradient>
				<path fill="url(#SVGID_2_)" d="M282.52,160.08c-7.73,0.32-15.22-2.08-21.42-5.21c-0.04-0.09-0.06-0.13-0.06-0.13
					c0.92,0.15,1.83,0.26,2.72,0.31c5.59,2.53,12.07,4.32,18.72,4.04c8.55-0.36,15.95-4.09,21.99-11.08
					c19.15-22.17,25.57-20.25,25.83-20.16l-0.17,0.46l-0.15,0.47c0,0-0.01,0-0.02,0c-0.37-0.08-6.75-0.97-24.75,19.87
					C298.99,155.87,291.35,159.71,282.52,160.08z"/>
			</g>
		</g>
	</g>
	
		<linearGradient id="SVGID_3_" gradientUnits="userSpaceOnUse" x1="-92.4228" y1="218.6045" x2="122.6432" y2="3.5384" gradientTransform="matrix(1 0 0 1 153.207 0)">
		<stop  offset="4.783190e-03" style="stop-color:#D2E3FC"/>
		<stop  offset="0.3362" style="stop-color:#EAF1FE"/>
		<stop  offset="1" style="stop-color:#F9FBFF"/>
	</linearGradient>
	<path fill="url(#SVGID_3_)" d="M304.21,42.38C303.5,5.77,222.37-12.9,177.15,10.07c-28,14.22-35.58,30.36-67.11,45.85
		c-28.96,14.22-44.72,7.23-57.19,11.9C12.3,83.01,4.36,130.85,16.68,165.19c7.87,21.92,25.81,37.87,42.9,37.87
		c24.21,0,145.26-0.48,145.26-0.48s78.07-0.82,76.42-63.28C279.69,79.58,305.23,94.16,304.21,42.38z"/>
	<g>
		
			<linearGradient id="SVGID_4_" gradientUnits="userSpaceOnUse" x1="-107.692" y1="29.4007" x2="-41.1671" y2="29.4007" gradientTransform="matrix(-1 0 0 1 3.6483 0)">
			<stop  offset="4.783190e-03" style="stop-color:#D2E3FC"/>
			<stop  offset="0.3362" style="stop-color:#EAF1FE"/>
			<stop  offset="1" style="stop-color:#F9FBFF"/>
		</linearGradient>
		<path fill="url(#SVGID_4_)" d="M60.53,27.44c1.97,0,3.86,0.29,5.59,0.82c2.29-5.56,7.98-9.49,14.64-9.49
			c7.4,0,13.61,4.86,15.28,11.41c1.28-0.48,2.67-0.75,4.13-0.75c6.16,0,11.16,4.75,11.16,10.61H95.01h-5.99H76.26h-9.73H44.82
			C44.82,33.08,51.85,27.44,60.53,27.44z"/>
	</g>
	<path fill="#163560" d="M58.75,74.06l-6.87-0.25c0,0-9-4.78-2.4-5.57c9.04-1.08,11.09,5.83,10.97,6.95
		c-0.12,1.11-2.42,0.77-2.42,0.77L58.75,74.06"/>
	<path fill="#D68D5D" d="M34.31,130.54c1.57,2.97,3.32,5.25,3.32,5.25l4.02-0.7c0,0-3.5-7.35-3.85-8.57
		C37.46,125.29,34.31,130.54,34.31,130.54z"/>
	<path fill="#D14144" d="M34.09,131.34c2.5-0.73,3.88-2.18,4.91-3.24c-0.9-2.01-1.82-4.13-2.65-6.18l5.13-9.28
		c0,0,7.11-16.92-0.53-15.69c0,0-3.8,1.57-6.47,5.95c-2.02,3.32-5.54,14.68-5.39,17.65c0.16,2.97,2.27,5.18,4.55,9.95
		C33.65,130.5,33.82,130.82,34.09,131.34z"/>
	<polygon fill="#FFB27D" points="76.91,215.53 81.44,225.41 84.16,221.92 82.4,214.18 	"/>
	<g>
		<path fill="#FFB27D" d="M90.65,230.37c0,0-4.97-5.64-6.49-8.45l-3.7,1.89l8.26,7.75l1.93-0.25L90.65,230.37z"/>
		<path fill="#D14144" d="M93.69,233.18h-6.89c-0.61-0.54-1.19-1.65-1.9-3.09c-0.41-0.83-1.32-1.28-2.25-1.54v4.63h-1.42l-1.32-4.92
			c-0.88-1.65-0.22-3.16,0.4-4.46c0.72,0,2.8,0.52,6.47,4.73c1.21,1.38,2.54,1.88,3.86,1.84c0.02,0.01,0.04,0.02,0.05,0.03
			C92.79,231.36,93.48,232.53,93.69,233.18z"/>
	</g>
	<polygon fill="#FFB27D" points="48.27,216.49 51.99,225.54 54.71,222.05 53.76,215.13 	"/>
	<g>
		<path fill="#FFB27D" d="M61.2,230.49c0,0-4.97-5.64-6.49-8.45l-3.7,1.89l8.26,7.76l1.93-0.25L61.2,230.49z"/>
		<path fill="#D14144" d="M64.24,233.31h-6.89c-0.61-0.55-1.19-1.65-1.89-3.09c-0.41-0.83-1.32-1.28-2.25-1.53v4.63h-1.42
			l-1.32-4.92c-0.88-1.65-0.22-3.16,0.4-4.46c0.72,0,2.81,0.52,6.48,4.74c1.2,1.38,2.54,1.88,3.86,1.84
			c0.02,0.01,0.04,0.02,0.05,0.03C63.34,231.48,64.02,232.66,64.24,233.31z"/>
	</g>
	<path fill="#80BDCC" d="M56.01,189.01c0.05,7.12-0.31,23.48-1.23,30.26h-3.44c-1.9,0-2.85-0.03-2.85-0.03
		c-2.33-11.78-3.98-21.53-5.18-29.92c-0.99-6.89-1.87-12.8-2.54-17.89c-0.68-5.12-1.15-9.4-1.32-13.03
		c-0.03-0.57-0.05-1.13-0.06-1.66c-0.01-0.54-0.63-6-0.62-6.51l19.39,3.1C57.91,165.8,55.99,184.87,56.01,189.01z"/>
	<path fill="#5F9AA8" d="M51.34,219.26c-1.9,0-2.85-0.03-2.85-0.03c-2.33-11.78-3.98-21.53-5.18-29.92
		c-0.99-6.89-1.87-12.8-2.54-17.89c-0.68-5.12-1.59-17.33-1.76-20.95l3.44-0.25c0,0-0.52,13.77,1.16,25.51
		C45.29,187.48,49.01,217.6,51.34,219.26z"/>
	<path fill="#80BDCC" d="M84.68,219.35l-3.59,0.11l-3.88,0.12c0,0-8.97-9.99-14-26c-0.12-0.37-0.24-0.75-0.37-1.13
		c-2.75-8.03-8.46-18.11-11.47-27.23c-0.48-1.45-0.91-2.82-1.29-4.11c-0.12-0.42-0.24-0.82-0.36-1.23
		c-2.22-7.7-2.86-12.76-3.45-18.16l23.27,9.13C69.53,150.85,71.49,178.79,84.68,219.35z"/>
	<path fill="#5F9AA8" d="M81.09,219.46l-3.88,0.12c0,0-8.97-9.99-14-26c-0.12-0.37-0.24-0.75-0.37-1.13
		c-2.75-8.03-9.44-19.69-12.45-28.81c-0.48-1.45-3.3-8.79-3.69-10.09c-0.12-0.41-1.33-11.73-1.44-12.14l2.82,0.63
		c0,0,12.77,29.23,17.41,45.6C69.03,200.12,78.41,215.66,81.09,219.46z"/>
	<g>
		<g>
			<g>
				<path fill="#FFFFFF" d="M145.68,103.05c3.57-9.85,0.17-20.53-7.68-26.64c-1.9-1.48-4.06-2.69-6.45-3.55
					c-7.23-2.62-14.9-1.48-20.89,2.41c-4.15,2.7-7.48,6.72-9.3,11.73c-0.18,0.5-0.34,1-0.49,1.5c-0.66,2.28-0.96,4.58-0.92,6.85
					c0.13,9.52,6.07,18.4,15.55,21.84C127.73,121.61,141.25,115.28,145.68,103.05z M117.5,111.63c-7.11-2.57-11.56-9.24-11.66-16.37
					c-0.02-1.7,0.2-3.43,0.69-5.13c0.11-0.38,0.23-0.75,0.37-1.13c1.36-3.76,3.86-6.77,6.97-8.79c4.49-2.92,10.24-3.77,15.66-1.81
					c1.79,0.65,3.41,1.56,4.83,2.66c5.89,4.58,8.44,12.58,5.76,19.97C136.81,110.21,126.68,114.96,117.5,111.63z"/>
			</g>
		</g>
		<g>
			<g>
				<path fill="#1A598C" d="M113.88,80.21l-3.22-4.94c5.99-3.89,13.66-5.03,20.89-2.41c2.39,0.86,4.55,2.07,6.45,3.55l-3.62,4.66
					c-1.42-1.11-3.04-2.01-4.83-2.66C124.12,76.44,118.37,77.29,113.88,80.21z"/>
			</g>
		</g>
		<g>
			<g>
				<path fill="#2273B5" d="M106.54,90.12l-5.67-1.63c0.14-0.5,0.31-1,0.49-1.5c1.81-5.01,5.15-9.03,9.3-11.73l3.22,4.94
					c-3.11,2.02-5.61,5.03-6.97,8.79C106.77,89.37,106.65,89.75,106.54,90.12z"/>
			</g>
		</g>
		<g>
			<g>
				<path fill="#3D96E0" d="M99.95,95.34c-0.03-2.27,0.27-4.57,0.92-6.85l5.67,1.63c-0.49,1.71-0.72,3.43-0.69,5.13L99.95,95.34z"/>
			</g>
		</g>
	</g>
	<g>
		<g>
			<g>
				<path fill="#FFFFFF" d="M211.8,99.38c1.94-10.3-3.14-20.29-11.87-25.06c-2.11-1.15-4.44-2-6.93-2.47
					c-7.56-1.42-14.95,0.93-20.23,5.73c-3.66,3.33-6.31,7.83-7.29,13.07c-0.1,0.52-0.18,1.04-0.24,1.56
					c-0.29,2.35-0.21,4.67,0.19,6.91c1.66,9.37,8.94,17.19,18.85,19.06C197.07,120.59,209.39,112.17,211.8,99.38z M185.37,112.38
					c-7.43-1.4-12.89-7.26-14.13-14.29c-0.3-1.67-0.35-3.42-0.14-5.18c0.05-0.39,0.11-0.78,0.18-1.17c0.74-3.93,2.73-7.3,5.47-9.8
					c3.96-3.6,9.5-5.37,15.17-4.3c1.87,0.35,3.62,0.99,5.2,1.85c6.54,3.57,10.35,11.06,8.9,18.78
					C204.2,107.88,194.96,114.19,185.37,112.38z"/>
			</g>
		</g>
		<g>
			<g>
				<path fill="#4B59C7" d="M176.74,81.95l-3.97-4.36c5.28-4.8,12.68-7.16,20.23-5.73c2.49,0.47,4.82,1.32,6.93,2.47l-2.83,5.18
					c-1.58-0.86-3.33-1.5-5.2-1.85C186.25,76.58,180.7,78.35,176.74,81.95z"/>
			</g>
		</g>
		<g>
			<g>
				<path fill="#6F5BE0" d="M171.09,92.92l-5.86-0.7c0.06-0.52,0.14-1.04,0.24-1.56c0.99-5.24,3.63-9.74,7.29-13.07l3.97,4.36
					c-2.74,2.49-4.73,5.87-5.47,9.8C171.2,92.14,171.14,92.53,171.09,92.92z"/>
			</g>
		</g>
		<g>
			<g>
				<path fill="#B487FE" d="M165.42,99.12c-0.4-2.23-0.47-4.56-0.19-6.91l5.86,0.7c-0.21,1.76-0.16,3.51,0.14,5.18L165.42,99.12z"/>
			</g>
		</g>
	</g>
	<g>
		<g>
			<g>
				<path fill="#FFFFFF" d="M264.83,74.21c-9.25-4.92-20.31-3.06-27.46,3.85c-1.73,1.67-3.23,3.64-4.42,5.88
					c-3.61,6.79-3.57,14.55-0.56,21.02c2.08,4.49,5.59,8.36,10.3,10.86c0.47,0.25,0.94,0.48,1.42,0.7c2.16,0.97,4.4,1.59,6.65,1.88
					c9.44,1.21,19.07-3.41,23.81-12.31C280.68,94.6,276.32,80.32,264.83,74.21z M269.36,103.32c-3.55,6.67-10.77,10.14-17.85,9.23
					c-1.69-0.22-3.37-0.68-4.99-1.41c-0.36-0.16-0.71-0.34-1.06-0.52c-3.53-1.88-6.16-4.78-7.72-8.14
					c-2.26-4.85-2.29-10.67,0.42-15.76c0.9-1.68,2.02-3.16,3.32-4.41c5.36-5.18,13.65-6.58,20.58-2.89
					C270.67,84,273.94,94.7,269.36,103.32z"/>
			</g>
		</g>
		<g>
			<g>
				<path fill="#1A598C" d="M237.74,102.48l-5.35,2.49c-3.01-6.47-3.05-14.23,0.56-21.02c1.19-2.24,2.69-4.21,4.42-5.88l4.1,4.24
					c-1.3,1.25-2.42,2.73-3.32,4.41C235.45,91.81,235.48,97.62,237.74,102.48z"/>
			</g>
		</g>
		<g>
			<g>
				<path fill="#2273B5" d="M246.52,111.14l-2.42,5.38c-0.48-0.22-0.95-0.45-1.42-0.7c-4.71-2.5-8.21-6.37-10.3-10.86l5.35-2.49
					c1.56,3.36,4.19,6.26,7.72,8.14C245.81,110.8,246.16,110.98,246.52,111.14z"/>
			</g>
		</g>
		<g>
			<g>
				<path fill="#3788CC" d="M250.75,118.4c-2.25-0.29-4.49-0.91-6.65-1.88l2.42-5.38c1.62,0.73,3.3,1.19,4.99,1.41L250.75,118.4z"/>
			</g>
		</g>
	</g>
	<rect x="99.95" y="129.79" fill="#C4C4C4" width="47.15" height="3.64"/>
	<rect x="99.95" y="137.52" fill="#C4C4C4" width="35.29" height="3.64"/>
	<rect x="165.06" y="129.79" fill="#C4C4C4" width="26" height="3.64"/>
	<rect x="165.06" y="137.52" fill="#C4C4C4" width="38.59" height="3.64"/>
	<polyline fill="#C4C4C4" points="234.46,141.16 234.46,137.52 267.93,137.52 267.93,141.16 	"/>
	<rect x="99.95" y="154.89" fill="#FFFFFF" width="126.48" height="3.52"/>
	<rect x="99.95" y="163.1" fill="#FFFFFF" width="120.78" height="3.52"/>
	<rect x="99.95" y="171.31" fill="#FFFFFF" width="86.58" height="3.52"/>
	<rect x="99.95" y="154.89" fill="#FFA347" width="78.12" height="3.52"/>
	<rect x="99.95" y="163.1" fill="#FFA347" width="84.42" height="3.52"/>
	<rect x="99.95" y="171.31" fill="#FFA347" width="54.77" height="3.52"/>
	
		<linearGradient id="SVGID_5_" gradientUnits="userSpaceOnUse" x1="-1878.6263" y1="140.2012" x2="-1774.8173" y2="140.2012" gradientTransform="matrix(1 0 0 1 1878.6263 0)">
		<stop  offset="0" style="stop-color:#FF9F55"/>
		<stop  offset="1" style="stop-color:#FFD255"/>
	</linearGradient>
	<polygon fill="url(#SVGID_5_)" points="2.92,157.37 103.81,140.19 100.89,123.04 0,140.21 	"/>
	<path fill="#ED9842" d="M33,152.24l8.46-1.44c0.69-2.88-0.69-12.85-1.39-17.41l-0.87,0.15C37.59,140.71,34.61,148.4,33,152.24z"/>
	<path fill="#ED9842" d="M78.2,142.01c-0.33-0.22-10.49-10.6-11.27-10.37c-0.78,0.22-1,6.47-0.45,7.59
		c0.49,0.98,5.25,3.71,11.27,5.41l1.92-0.33C79.15,143.39,78.41,142.15,78.2,142.01z"/>
	
		<rect x="102.31" y="124.55" transform="matrix(-0.9858 0.1679 -0.1679 -0.9858 230.6165 242.8075)" fill="#2D3038" width="5.47" height="13.21"/>
	<path fill="#FFB27D" d="M54.13,89.55c0,0-1.87,4.96-0.42,8.79c0,0-6.87-0.45-7.13-1.25c-0.26-0.8,0.28-8.23-0.67-10.43
		C44.97,84.47,54.13,89.55,54.13,89.55z"/>
	<path fill="#F55B5E" d="M54.8,96.67c0,0,4.41,1,6.74,2.02c1.72,0.76,4.83,2.04,4.52,8.89c-0.31,6.85-1.46,12.78-1.87,15.73
		c-0.42,2.94-0.16,10.43,0.52,14.07c0,0-9.74,2.46-21.19,0c0,0,2.03-6.21,1.98-7.81c-0.05-1.61-6.77-14.82-7.08-16.9
		c-0.31-2.09-1.67-11.29,1.41-13.32c3.07-2.03,5.57-1.76,6.87-2.67C47.99,95.76,52.9,96.01,54.8,96.67z"/>
	<path fill="#5F9AA8" d="M69.15,152.35c-11.35,4.44-16.44,5.09-16.44,5.09l-4.44-1.96c0,0-5.09,0.39-7.05-0.13
		c-1.96-0.52-1.17-5.35,0.26-5.87C42.92,148.95,69.15,152.35,69.15,152.35z"/>
	<path fill="#F55B5E" d="M36.02,150.51c15.68,8.4,34.41,1.44,34.41,1.44c-1.6-4.82-3.16-13.07-3.16-13.07
		c-0.56-3.23-0.54-4.21-0.78-5.8l-1.08,0.45c-1.35-9.06,0.23-13.67,0.23-13.67c-1.92-15.8-25.83-20.52-27.74-15.51
		c-0.91,2.38,1.65,6.78,1.8,18.44C39.86,135.64,36.02,150.51,36.02,150.51z"/>
	<path fill="#D68D5D" d="M45.92,86.67c0.03,0.08,0.06,0.17,0.09,0.27c1.69,2.32,4.56,5.25,7.22,6.77c0.21-2.3,0.91-4.15,0.91-4.15
		S44.97,84.47,45.92,86.67z"/>
	<path fill="#FFB27D" d="M48.15,69.66c2.76-0.95,10.23-1.96,12.14,9.51c1.91,11.46-2.25,11.66-6.53,11.33
		c-4.28-0.33-10.98-8.06-11.49-10.41C41.75,77.73,40.26,72.36,48.15,69.66z"/>
	<path fill="#163560" d="M59.87,75c0,0-1.19,6.26-8.17,7.72c0,0-0.55,3.26-4.61,5.36c0,0-10.32-7.29-4.07-15.77
		C49.27,63.83,59.16,71.52,59.87,75z"/>
	<path fill="#FFB27D" d="M51.56,81.14c-0.24-0.6-1.86-1.57-2.58,0.07c-0.72,1.63,1.88,4.52,2.59,4.36
		C52.27,85.41,52.47,83.4,51.56,81.14z"/>
	<path fill="#163560" d="M47.38,97.05c-0.57-4.91,1.19-15.35-3.99-23.43c-0.24-0.37-7.37-3.67-8.85,3.23
		c-1.48,6.9,2.91,10.82,3.65,16.89c0.51,4.18-2.94,16.18-2.94,16.18l2.39,0.74l1.29-2.57l0.37,2.57c0,0,4.6,1.1,8.83-0.37
		C52.7,108.69,47.9,101.6,47.38,97.05z"/>
	<path fill="#E54242" d="M43.03,73.38c0,0,2.18,1.73,2.47,4.45c0,0,0.41-2.13-0.47-3.42C44.14,73.11,43.03,73.38,43.03,73.38z"/>
	<path fill="#D14144" d="M67.54,140.22c-0.46-1.69-0.26-2.65-0.5-4.24l-1.2-0.86c0,0-1.71-1.59-2.07-2.71
		c-0.37-1.11-3.12-14.81-3.12-14.81s-0.1,14.1,1.42,17.07C63.09,136.66,65.93,138.27,67.54,140.22z"/>
	<path fill="#EEA886" d="M73.57,133.81c0,0,6.93,8.93,7.62,9.15c0.69,0.21,5-0.01,4.37,0.7c-1.4,1.58-3.59,2.57-5.77,1.92
		c-4.72-1.4-10.52-8.38-10.52-8.38L73.57,133.81z"/>
	<path fill="#D68D5D" d="M74.18,134.6c-0.42-0.5-0.65-0.98-0.65-0.98l-4.25,3.58c0,0,0.89,1.07,2.25,2.45
		C72.44,138.5,73.57,136.57,74.18,134.6z"/>
	<path fill="#F55B5E" d="M61.84,98.89c0,0,6.24,1.69,6.58,9.61c0.34,7.92,0.23,12.43,0.47,13.38c1.11,4.4,5.12,12.33,5.12,12.33
		s-0.22,1.18-1.75,2.45c-1.53,1.26-2.8,1.92-2.8,1.92s-4.93-3.83-5.71-6.17c-0.77-2.33-3.95-18.58-4.21-21.32
		C59.36,108.89,56.45,99.05,61.84,98.89z"/>
	
		<ellipse transform="matrix(0.0708 -0.9975 0.9975 0.0708 39.6673 276.7469)" opacity="0.1" fill="#B8B8B8" cx="168.37" cy="117.08" rx="53.94" ry="53.94"/>
	<path opacity="0.3" fill="#869AC2" d="M132.75,77.74c0,0,68.9-8.54,82.62,64.17c0,0,0,0,0,0c3.95-7.43,6.19-15.9,6.19-24.9
		c0-29.32-23.77-53.09-53.09-53.09C154.72,63.92,142.18,69.15,132.75,77.74z"/>
	<path fill="#3F444F" d="M168.37,53.76c-34.97,0-63.32,28.35-63.32,63.32c0,34.97,28.35,63.33,63.32,63.33
		c34.97,0,63.32-28.35,63.32-63.33C231.7,82.11,203.35,53.76,168.37,53.76z M168.37,170.1c-29.28,0-53.01-23.73-53.01-53.01
		c0-29.28,23.73-53.01,53.01-53.01c29.28,0,53.01,23.74,53.01,53.01C221.39,146.37,197.65,170.1,168.37,170.1z"/>
</g>
</svg>