<?xml version="1.0" encoding="utf-8"?>
<!-- Generator: Adobe Illustrator 23.1.0, SVG Export Plug-In . SVG Version: 6.00 Build 0)  -->
<svg version="1.0" id="Layer_1" xmlns="http://www.w3.org/2000/svg" xmlns:xlink="http://www.w3.org/1999/xlink" x="0px" y="0px"
	 viewBox="0 0 351.3 210.8" enable-background="new 0 0 351.3 210.8" xml:space="preserve">
<g>
	
		<linearGradient id="SVGID_1_" gradientUnits="userSpaceOnUse" x1="138.4851" y1="233.3011" x2="344.6673" y2="27.1189" gradientTransform="matrix(-1 0 0 1 397.6119 0)">
		<stop  offset="4.783190e-03" style="stop-color:#D2E3FC"/>
		<stop  offset="0.3362" style="stop-color:#EAF1FE"/>
		<stop  offset="1" style="stop-color:#F9FBFF"/>
	</linearGradient>
	<path fill="url(#SVGID_1_)" d="M38.6,66c12.6-13.8,27.8-96.9,80-53.6c26.9,22.4,72.4-19.2,110-4.8c34.5,13.2,37.9,56.6,34.5,70.8
		c-6.7,28.6,14.3,32.8,33.7,45.1c30.6,19.3,15.6,87.3-36.7,87.3c-28.9,0-201.5-0.6-201.5-0.6s-33.4,0.1-50.8-29.5
		C-11,148.7,6,101.6,38.6,66z"/>
	<g>
		<rect x="91.9" y="38.6" fill="#AED3FF" width="110.2" height="62"/>
		<rect x="88.3" y="38.6" fill="#D2E4FF" width="110.2" height="62"/>
		<path fill="#F3F9FF" d="M168.3,48.3c11,0,19.9,8.9,19.9,19.9c0,11-8.9,19.9-19.9,19.9s-19.9-8.9-19.9-19.9
			C148.4,57.2,157.3,48.3,168.3,48.3z"/>
		<g>
			<path fill="#F3F9FF" d="M100.7,57.1h33c1.2,0,2.2,1,2.2,2.2l0,0c0,1.2-1,2.2-2.2,2.2h-33c-1.2,0-2.2-1-2.2-2.2l0,0
				C98.5,58.1,99.5,57.1,100.7,57.1z"/>
			<path fill="#F3F9FF" d="M100.7,66.1h33c1.2,0,2.2,1,2.2,2.2l0,0c0,1.2-1,2.2-2.2,2.2h-33c-1.2,0-2.2-1-2.2-2.2l0,0
				C98.5,67,99.5,66.1,100.7,66.1z"/>
			<path fill="#F3F9FF" d="M100.7,75h33c1.2,0,2.2,1,2.2,2.2c0,1.2-1,2.2-2.2,2.2h-33c-1.2,0-2.2-1-2.2-2.2
				C98.5,76,99.5,75,100.7,75z"/>
		</g>
		<path fill="#A8D29F" d="M186.6,67.9h-18.2V49.7C178.4,49.7,186.6,57.9,186.6,67.9z"/>
		<path fill="#F1A34F" d="M150.1,68.5h18.2l0,0h18.2c0,10.1-8.2,18.2-18.2,18.2l0,0l0,0l0,0l0,0C158.3,86.8,150.1,78.6,150.1,68.5z"
			/>
		<g>
			<path fill="#82B378" d="M171.5,58.6h9.9c0.6,0,1,0.5,1,1c0,0.6-0.5,1-1,1h-9.9c-0.6,0-1-0.5-1-1C170.5,59,170.9,58.6,171.5,58.6z
				"/>
			<path fill="#82B378" d="M179.1,62.3h2.3c0.6,0,1,0.5,1,1c0,0.6-0.5,1-1,1h-2.3c-0.6,0-1-0.5-1-1
				C178.1,62.8,178.6,62.3,179.1,62.3z"/>
		</g>
		<g>
			<path fill="#DD8936" d="M156.8,73h9.9c0.6,0,1,0.5,1,1c0,0.6-0.5,1-1,1h-9.9c-0.6,0-1-0.5-1-1C155.8,73.5,156.2,73,156.8,73z"/>
			<path fill="#DD8936" d="M164.4,76.7h2.3c0.6,0,1,0.5,1,1l0,0c0,0.6-0.5,1-1,1h-2.3c-0.6,0-1-0.5-1-1l0,0
				C163.4,77.2,163.9,76.7,164.4,76.7z"/>
		</g>
	</g>
	<g>
		<path fill="#AED3FF" d="M99.6,111.7v63.4h110.2v-63.4H99.6z"/>
		<path fill="#D2E4FF" d="M96.1,111.7v63.4h110.2v-63.4H96.1z"/>
		<path fill="#F3F9FF" d="M196,141.5c0-11-8.9-19.9-19.9-19.9s-19.9,8.9-19.9,19.9c0,11,8.9,19.9,19.9,19.9S196,152.5,196,141.5z"/>
		<g>
			<path fill="#F3F9FF" d="M141.4,134.7h-33c-1.2,0-2.2-1-2.2-2.2c0-1.2,1-2.2,2.2-2.2h33c1.2,0,2.2,1,2.2,2.2
				C143.6,133.7,142.6,134.7,141.4,134.7z"/>
			<path fill="#F3F9FF" d="M108.4,139.3h33c1.2,0,2.2,1,2.2,2.2c0,1.2-1,2.2-2.2,2.2h-33c-1.2,0-2.2-1-2.2-2.2
				C106.3,140.3,107.2,139.3,108.4,139.3z"/>
			<path fill="#F3F9FF" d="M108.4,148.3h33c1.2,0,2.2,1,2.2,2.2l0,0c0,1.2-1,2.2-2.2,2.2h-33c-1.2,0-2.2-1-2.2-2.2l0,0
				C106.3,149.3,107.2,148.3,108.4,148.3z"/>
		</g>
		<path fill="#F1A34F" d="M176.1,141.8l18.2-0.2c0,0.1,0,0.2,0,0.2c0,10.1-8.2,18.2-18.2,18.2c-3.6,0-7-1-9.8-2.8L176.1,141.8z"/>
		<g>
			<path fill="#DD8936" d="M175.4,147.6h9.9c0.6,0,1,0.5,1,1l0,0c0,0.6-0.5,1-1,1h-9.9c-0.6,0-1-0.5-1-1l0,0
				C174.4,148,174.8,147.6,175.4,147.6z"/>
			<path fill="#DD8936" d="M183.1,151.3h2.3c0.6,0,1,0.5,1,1c0,0.6-0.5,1-1,1h-2.3c-0.6,0-1-0.5-1-1
				C182,151.8,182.5,151.3,183.1,151.3z"/>
		</g>
	</g>
	<g>
		<path fill="#E58638" d="M70.5,60.2c0,0-12.9,13.3-13.5,18.3c-0.6,5,6.1,12.8,6.1,12.8L70.5,60.2z"/>
		<path fill="#163560" d="M76,197.8c0,0,0.4,7.1,1.8,7.2c0.2,0,6.9,0,6.9,0l8.6,0c0,0-0.1-2.1-2.6-2.5c-2.5-0.4-6.7-2.2-8.2-5.5
			C80.9,193.4,76,197.8,76,197.8z"/>
		<path fill="#163560" d="M56.8,197.8c0,0,0.4,7.1,1.8,7.2c0.2,0,6.9,0,6.9,0l8.6,0c0,0-0.1-2.1-2.6-2.5c-2.5-0.4-6.7-2.2-8.2-5.5
			C61.7,193.4,56.8,197.8,56.8,197.8z"/>
		<path fill="#163560" d="M85.5,122.2c0,0-2.2,14.4-10.6,39.9c-8.4,25.5-9.5,36.6-9.5,36.6s-2.3,0.3-4.7,0.3c-1.5,0-4.3-0.6-4.3-0.6
			s-0.1-27.9,3.8-40.8c3.9-12.8,0.8-46.3,0.8-46.3L85.5,122.2z"/>
		<path fill="#1C468A" d="M89.9,112.2c0,0,0.3,21.7-3.4,48.3c-3.8,26.6-2.5,37.9-2.5,37.9s-3.1,0.6-4.2,0.6c-1.2,0-4.8-0.3-4.8-0.3
			s-5.4-26.6-3.8-40c1.5-13.3-7.4-45.7-7.4-45.7L89.9,112.2z"/>
		<path fill="#FFB27D" d="M72.5,61.5l4.2,3.1l6.1-1.3c-0.1-0.6-0.5-2.9-0.9-5c0-0.1,0-0.2-0.1-0.4c-0.3-1.8-0.6-3.3-0.6-3.3
			l-5.7-2.8l-2.1-1.1c0,0,0.2,2,0.2,2.3C74.1,58,72.5,61.5,72.5,61.5z"/>
		<path fill="#E58638" d="M82.4,59.9c-0.1-0.1-8.3-2.5-9.2-2.2c-0.9,0.3-1.4,2-1.4,2l13.4,3C85.2,62.8,84.2,60.6,82.4,59.9z"/>
		<path fill="#EE9849" d="M60.4,114.9c1.4,6.3,24.5,7.1,30.5,1.3c0.7-0.7,0.7-3.7,0.5-7.8c-0.5-8-2.1-20.1-2.2-26.3c0-3-0.4-6-1-8.8
			c-1.2-5.9-2.9-10.5-2.9-10.5s-11.3-3.6-13.4-3C61.6,62.7,59,108.5,60.4,114.9z"/>
		<path fill="#E58638" d="M91.3,108.4c-0.5-8-2.1-20.1-2.2-26.3c0-3-0.4-6-1-8.8l-6.8-1.2C81.4,72.1,74.7,99.2,91.3,108.4z"/>
		<path fill="#FFB27D" d="M87.6,97.2c0,0-0.5,1.1,0.5,1.9c1,0.7,1.6,1.9,1.4,2.8c-0.2,0.9-2.4,2.3-3.1,2.1c-0.7-0.2-2.2-1.4-2.1-1.9
			c0.2-0.5-1-4.1,0.8-5.5C86.9,95.3,87.6,97.2,87.6,97.2z"/>
		<path fill="#EE9849" d="M80,61.1c0,0,6.6,1.2,11.9,9c5.3,7.8,8.8,13.6,7.8,16.4c-1,2.8-9.8,12.5-11.4,12.5c-1.5,0-4-1.1-4.1-3.6
			c0,0,6.2-9.4,5-10.8c-0.5-0.6-8.1-6.8-9.2-4C78.2,85.3,80,61.1,80,61.1z"/>
		<path fill="#FCA56B" d="M74.1,53.1c1.3,2.4,5.9,4.5,7.9,5.2c0-0.1,0-0.2-0.1-0.4c-0.3-1.8-0.6-3.3-0.6-3.3l-5.7-2.8
			C74.4,51.8,73.6,52.1,74.1,53.1z"/>
		<path fill="#FFB27D" d="M83.2,54.8c0,0-8.5,2.6-10-2.7c-1.6-5.3-3.7-8.5,1.6-10.4c5.3-1.9,7-0.2,7.9,1.4
			C83.7,44.8,85.4,54,83.2,54.8z"/>
		<path fill="#163560" d="M82.4,42.6c0,0-0.5,6.2-1.8,5.9c-1.3-0.3-2.4-0.5-2.2,1.4c0.2,1.9,2,4-2,4.3c-3.9,0.3-9.6-9.8-8.5-11.7
			C71,37,86.9,35.9,82.4,42.6z"/>
	</g>
	<g>
		<polygon fill="#FFB27D" points="234.9,185.9 232.3,196.8 228.4,196.7 228.3,185.9 		"/>
		<polygon fill="#FFB27D" points="202.4,186.4 195.1,196.8 192.2,193.1 196.6,184.9 		"/>
		<path fill="#163560" d="M220.2,68.3c-0.5-1-1-2.8-1.3-6c0,0.3,0.6,4.4,2.2,6.7c6.4,4.2,18.7,18.3,18.5,20.9c0,0,1.4-1.3,3.3-3.1
			l0.5-2.7c0.2,0.5,0.3,1.4,0.3,2.1c3.7-3.4,9-8.1,11.8-10.3c-0.4-1.2-1.3-3.2-1.3-3.2c0.8,0.2,1.8,1.7,2.3,2.5
			c0.1-0.1,0.2-0.1,0.2-0.2c0,0-0.8-6.6-10.4-11.6c-5-2.6-8.5-3.7-8.3-7c0.2-3.3-1.3-17.5-11-13.8c0,0-1.5-0.7-2.2-0.6
			c0,0,0.6,0.1,0.9,0.4c-1.1-0.1-2.7,0-4,0.8C217.9,45.2,214.8,63.3,220.2,68.3z"/>
		<path fill="#FFB27D" d="M221.4,69.1c0,0,3.1,1.6,5.5,1c2.2-0.6,3.7-3.5,3.6-3.5c-0.9-0.2-1.2-1.5-1.2-7l-0.4,0.1l-7.1,1.4
			c0,0,0.2,2.2,0.2,4.4C221.9,67.2,221.8,68.9,221.4,69.1z"/>
		<path fill="#F55B5E" d="M229.5,45.6c0,0-3.5-3.7-7.9-0.2C221.6,45.4,224.1,44.9,229.5,45.6z"/>
		<path fill="#D68D5D" d="M221.8,61.1c0,0,0.2,2.2,0.2,4.4c4-0.1,6.1-3.8,7-5.8L221.8,61.1z"/>
		<path fill="#163560" d="M229.6,58.9c0,0,2.1-3.3,2.6-6.1c0.4-2-0.7-9.5-8.2-8.4c0,0-2.2,0.2-4.2,1.6c-1.6,1.1-4,3.5-1.4,10
			l0.7,2.2L229.6,58.9z"/>
		<path fill="#80BDCC" d="M193.4,190.2l3.8,0.1l4.1,0.1c0,0,9.4-10.5,14.7-27.4c0.1-0.4,0.3-0.8,0.4-1.2c2.9-8.5,8.9-19.1,12.1-28.7
			c0.5-1.5,1-3,1.4-4.3c0.1-0.4,0.3-0.9,0.4-1.3c2.3-8.1,3-13.4,3.6-19.1l-22.9,0.2C210.9,108.7,207.2,147.5,193.4,190.2z"/>
		<path fill="#E7F1FD" d="M214.1,95.6c0.1,10.9-1.6,15.6-1.6,15.6s9.8,5,21.4,1.3c0.1,0,9.6-2.2,9.6-2.2c-0.2-0.4-1.9-7.8-2.1-8.2
			c-2.5-5.3-4.3-7.6-4.6-9.2c-0.5-3-0.6-6.2-0.3-9.1c0.7-7.8,2.8-14.3,2.8-14.3c-3.2-0.7-6.2-2-9.5-3.2c-0.8,0.9-3,1.9-5,1.9
			c-2.3-0.1-3-1-3-2.1c-2.5,1.4-4.4,2.7-4.4,2.7c-2.1,3.6-6.4,7.2-6.7,12.8C210.8,82.7,214.1,95.3,214.1,95.6z"/>
		<path fill="#5F9AA8" d="M233.8,96.8c1,1.4,2.9,10,7.7,11.1c-2.5-6.1-4.3-8.8-4.6-10.7c-0.5-3.5-0.6-7.2-0.3-10.6
			c-1.6-2.8-2.8-4.7-2.8-4.7c-0.1-0.5-2.5-7.9-3.3-1.2C229.7,87.3,232.7,95.2,233.8,96.8z"/>
		<path fill="#FFB27D" d="M220.4,63.1c0,0,9.4,0.2,9.4-5.7c0-5.9,1.2-9.8-4.8-10.2c-6-0.3-7.2,1.9-7.7,3.9
			C216.9,53,218,62.9,220.4,63.1z"/>
		<path fill="#163560" d="M217.7,47.8c1.5-1.8,2.6-1.4,3.2-0.9c2-3,8.5,1.4,8.5,1.4c0.6,4.2,3.7,6.6,3.7,6.6s-1.7,1.1-5.7,0
			c-3.1-0.8-5.4-5.2-6.2-7.1c-0.6,0.5-1.7,1.7-2.1,2.8c-0.5,1.5-0.7,4.6-1.6,4.5C217.4,55.1,215.5,50.5,217.7,47.8z"/>
		<path fill="#FFB27D" d="M232.4,196.2c0,0-0.3,2.2,0.5,4.5c0,0,0.6,2.9-2.2,2.9c-2.8,0.1-3.5-0.2-3.2-2c0.3-1.8,0.9-4.8,0.9-4.8
			L232.4,196.2z"/>
		<path fill="#D14144" d="M227.2,205C227.2,205,227.2,205,227.2,205l5.9,0c0,0,0,0,0,0c0.3-1.5-0.2-4.3-0.2-4.3
			c-3.2,3.1-5.2-0.1-5.2-0.1C227.2,201.9,227.2,205,227.2,205z"/>
		<path fill="#FFB27D" d="M185.4,202c0,0,5.2-5.9,6.8-8.9l3.9,2l-8.7,8.2l-2-0.3L185.4,202z"/>
		<path fill="#D14144" d="M182.2,204.9h7.3c0.6-0.6,1.2-1.7,2-3.3c0.4-0.9,1.4-1.4,2.4-1.6v4.9h1.5l1.4-5.2c0.9-1.7,0.2-3.3-0.4-4.7
			c-0.8,0-3,0.5-6.8,5c-1.3,1.5-2.7,2-4.1,1.9c0,0,0,0-0.1,0C183.1,203,182.4,204.3,182.2,204.9z"/>
		<path fill="#F55B5E" d="M182.5,72.9c0,0,6.2,3.5,8.4,4.5c0.8,0.4,2.2,1,3.7,1.7c0.9,0.4,1.8,0.8,2.5,1.2c1.3,0.6,2.8,0.3,3.8-0.8
			c3.4-3.9,12-12.4,21-13.5l0,0c0,0,0,0,0,0c0,0,0,0,0,0l0,0.1c-0.5,1.3-5.4,13.5-5.6,16.1c-0.2,2.7-0.6,44.6-0.6,44.6
			s0.3,1.9-3.4,1.1c-3.7-0.8-4.7-1.6-4.7-1.6s3.5-25.8,2.6-34.8c-0.2-1.8,0-3.7,0.4-5.8c-5.5,3.3-11.9,4.8-11.9,4.8s-2.4-1-6.1-3.4
			c-1.6-1-3.4-2.5-5.2-4.2c-2.2-2-5.9-6.8-5.9-6.8L182.5,72.9z"/>
		<path fill="#5F9AA8" d="M197.1,190.4l4.1,0.1c0,0,9.4-10.5,14.7-27.4c0.1-0.4,0.3-0.8,0.4-1.2c2.9-8.5,8.9-19.1,12.1-28.7
			c0.5-1.5,1-3,1.4-4.3c0.1-0.4,0.3-0.9,0.4-1.3l-3.4-2.6c0,0-10.1,16.4-13.2,31.8C210.8,170.3,200,186.4,197.1,190.4z"/>
		<path fill="#80BDCC" d="M226.5,158.3c-0.1,7.5,0.3,24.7,1.3,31.9h3.6c2,0,3,0,3,0c2.4-12.4,4.2-22.7,5.5-31.5
			c1-7.3,2-13.5,2.7-18.8c0.7-5.4,1.2-9.9,1.4-13.7c0-0.6,0-1.2,0.1-1.8c0-0.6,0-1.1,0-1.7l-19.8-1.9
			C224.5,133.9,226.5,153.9,226.5,158.3z"/>
		<path fill="#5F9AA8" d="M231.4,190.2c2,0,3,0,3,0c2.4-12.4,4.2-22.7,5.5-31.5c1-7.3,2-13.5,2.7-18.8c0.7-5.4,1.2-9.9,1.4-13.7
			l-7.3,4.3c0,0,4.6,1.6,2.9,14C237.7,156.7,233.8,188.4,231.4,190.2z"/>
		<path fill="#F55B5E" d="M230.4,126c0,0,1.4,5,6.2,4.4c4.8-0.6,11.7-3.5,11.7-3.5s-2.1-6.5-4.6-15c-3.1-10.3-6.9-23.7-8.7-32.1
			c-0.5-2.4-0.9-4.3-1-5.7l-4.1-7.8c0,0-5.9,13.4-6.2,16.7C223.4,86.3,230.4,126,230.4,126z"/>
		<path fill="#FFB27D" d="M213.2,86.7c2.3,0.3,3.2,1.5,3.5,3.2c0.2,0.9,0.6,1.8,1,2.4c2.3,0.1,7.8,0.4,12.4,0.7l0.4,6.1
			c-3.8-0.5-8.5-1.4-13.8-3.3c-0.4-0.1-0.9-0.3-1.6-0.9c-3.3-2.7-5.2-7.3-5.2-7.9C209.9,86.4,210.9,86.4,213.2,86.7z"/>
		<path fill="#D14144" d="M230.7,90c0.2,5.5,1.5,16.1,13,21.7c0,0,0.1,0,0.1,0c-3.1-10.3-6.9-23.7-8.7-32.1
			C232.9,82.8,230.5,87,230.7,90z"/>
		<path fill="#F55B5E" d="M229.9,66.2c0,0,9.8,0.7,12.1,5.9c2.4,5.2,3.1,22.7,0.1,27.8c0,0-4.1,1.2-11.4-0.2c-0.1,0-0.2,0-0.3-0.1
			c0,0-2.3-5.7-0.2-6.8c0,0,6.2,0.3,5.5-1.7C235.1,89.1,229.9,66.2,229.9,66.2z"/>
		<g>
			<path fill="#FFB27D" d="M175.9,68.7c5.3-0.7,6.6,4.1,6.6,4.1l-1,3.3c-1.6,0.2-3-0.2-4.4-2.1c-1.3-1.9-1.7-1.2-2.5-2.5
				C173.5,69.6,175.3,68.9,175.9,68.7z"/>
			<path fill="#FFB27D" d="M190.9,77.3c0.8,0.4,2.2,1,3.7,1.7c-0.8,1.4-1.8,3.9-2,8.1c-1.6-1-3.6-2.6-5.3-4.3
				c-2.8-2.7-5.7-6.6-5.7-6.6l1-3.3C182.5,72.9,188.7,76.3,190.9,77.3z"/>
		</g>
	</g>
</g>
<g>
	<linearGradient id="SVGID_2_" gradientUnits="userSpaceOnUse" x1="283.6614" y1="76.7763" x2="351.3264" y2="76.7763">
		<stop  offset="4.783190e-03" style="stop-color:#D2E3FC"/>
		<stop  offset="0.3362" style="stop-color:#EAF1FE"/>
		<stop  offset="1" style="stop-color:#F9FBFF"/>
	</linearGradient>
	<path fill="url(#SVGID_2_)" d="M335.3,74.8c-2,0-3.9,0.3-5.7,0.8c-2.3-5.7-8.1-9.7-14.9-9.7c-7.5,0-13.8,4.9-15.5,11.6
		c-1.3-0.5-2.7-0.8-4.2-0.8c-6.3,0-11.3,4.8-11.3,10.8h16.6h6.1h13h9.9h22.1C351.3,80.5,344.2,74.8,335.3,74.8z"/>
</g>
</svg>