<?xml version="1.0" encoding="utf-8"?>
<!-- Generator: Adobe Illustrator 23.1.0, SVG Export Plug-In . SVG Version: 6.00 Build 0)  -->
<svg version="1.0" id="Layer_1" xmlns="http://www.w3.org/2000/svg" xmlns:xlink="http://www.w3.org/1999/xlink" x="0px" y="0px"
	 viewBox="0 0 512 512" enable-background="new 0 0 512 512" xml:space="preserve">
<g>
	<path id="Shape" fill="#24AE5F" d="M309.7,198.1c17.5-66-11.5-135.5-70.7-169.6S105.1,4.3,56.8,52.6s-58.2,123-24.1,182.2
		c34,59.2,103.6,88.2,169.6,70.7L309.7,198.1z"/>
	<path fill="#4FBA6F" d="M293.5,198.1C316,102.5,251.8,8.4,163.7,8.4C89.5,8.4,29.4,76,29.4,159.5c0,100.1,84.4,171.2,168.6,146
		L293.5,198.1z"/>
	<g>
		
			<ellipse id="Oval" transform="matrix(1 -4.431986e-03 4.431986e-03 1 -0.5568 0.5406)" fill="#4C8056" cx="121.7" cy="125.9" rx="25.2" ry="25.2"/>
		
			<ellipse transform="matrix(0.6273 -0.7788 0.7788 0.6273 -21.4073 207.0718)" fill="#4C8056" cx="205.6" cy="125.9" rx="25.2" ry="25.2"/>
		<path fill="#4C8056" d="M219.4,184.7c0.8,0,1.6,0.3,2.1,0.9c0.6,0.6,0.9,1.4,0.8,2.2c-1.7,31.2-27.5,55.7-58.8,55.7
			c-31.3,0-57.1-24.5-58.8-55.7c0-0.8,0.3-1.6,0.8-2.2c0.6-0.6,1.3-0.9,2.2-0.9H219.4z"/>
	</g>
	<path fill="#C03A2B" d="M309.7,198.1c66-17.5,135.5,11.5,169.6,70.7c34,59.2,24.2,133.9-24.1,182.2c-48.3,48.3-123,58.2-182.2,24.1
		c-59.2-34-88.2-103.6-70.7-169.6L309.7,198.1z"/>
	<path fill="#E64C3C" d="M314,198.1c84.7-25.3,168.6,46.6,168.6,146c0,83.4-60.1,151.1-134.3,151.1c-88.4,0-152.3-94.3-129.8-189.7
		L314,198.1z"/>
	
		<ellipse transform="matrix(0.2274 -0.9738 0.9738 0.2274 -65.7258 538.2731)" fill="#C03A2B" cx="306.4" cy="310.6" rx="25.2" ry="25.2"/>
	
		<ellipse transform="matrix(0.7071 -0.7071 0.7071 0.7071 -105.2824 366.9404)" fill="#C03A2B" cx="390.3" cy="310.6" rx="25.2" ry="25.2"/>
	<path fill="#C03A2B" d="M415.3,420.5c0.4,2.5-0.7,5-2.7,6.4c-2,1.5-4.7,1.7-7,0.5c-36.5-16.2-78.1-16.2-114.7,0
		c-2.2,1.1-4.9,0.9-7-0.5c-2-1.5-3.1-4-2.7-6.4c8.3-30.2,35.7-51.2,67-51.2S407.1,390.2,415.3,420.5L415.3,420.5z"/>
	<path fill="#BDC3C7" d="M12.6,503.6c-3.4,0-6.5-2-7.8-5.2c-1.3-3.1-0.6-6.7,1.8-9.1L493.5,2.5c3.3-3.2,8.5-3.1,11.8,0.1
		c3.2,3.2,3.3,8.5,0.1,11.8C-15.1,534.7,18,503.6,12.6,503.6L12.6,503.6z"/>
</g>
</svg>