<?xml version="1.0" encoding="utf-8"?>
<!-- Generator: Adobe Illustrator 23.1.0, SVG Export Plug-In . SVG Version: 6.00 Build 0)  -->
<svg version="1.0" id="Capa_1" xmlns="http://www.w3.org/2000/svg" xmlns:xlink="http://www.w3.org/1999/xlink" x="0px" y="0px"
	 viewBox="0 0 512 512" enable-background="new 0 0 512 512" xml:space="preserve">
<g id="XMLID_4534_">
	<g id="XMLID_4537_">
		<path id="XMLID_3847_" fill="#3E84F4" d="M276.1,455.6l-5.1,5.1V315.1c0-8.3-6.7-15-15-15s-15,6.7-15,15v145.7l-5.1-5.1
			c-5.9-5.9-15.4-5.9-21.2,0c-5.9,5.9-5.9,15.4,0,21.2l30.7,30.8c2.8,2.8,6.6,4.4,10.6,4.4s7.8-1.6,10.6-4.4l30.7-30.8
			c5.9-5.9,5.9-15.4,0-21.2C291.5,449.8,282,449.8,276.1,455.6L276.1,455.6z"/>
		<path id="XMLID_3846_" fill="#4BB972" d="M464.1,358.3c-5.9-5.9-15.4-5.9-21.2,0c-5.9,5.9-5.9,15.4,0,21.2l5.4,5.4h-62.4v-70
			c0-8.3-6.7-15-15-15s-15,6.7-15,15v85c0,8.3,6.7,15,15,15h76.9l-4.9,4.9c-5.9,5.9-5.9,15.4,0,21.2c2.9,2.9,6.8,4.4,10.6,4.4
			c3.8,0,7.7-1.5,10.6-4.4l30.7-30.8c5.9-5.9,5.9-15.4,0-21.2L464.1,358.3z"/>
		<path id="XMLID_3845_" fill="#F1C459" d="M141.1,299.9c-8.3,0-15,6.7-15,15v70H63.7l5.4-5.4c5.9-5.9,5.9-15.4,0-21.2
			c-5.9-5.9-15.4-5.9-21.2,0l-30.7,30.8c-5.9,5.9-5.9,15.4,0,21.2l30.7,30.8c2.9,2.9,6.8,4.4,10.6,4.4c3.8,0,7.7-1.5,10.6-4.4
			c5.9-5.9,5.9-15.4,0-21.2l-4.9-4.9h76.9c8.3,0,15-6.7,15-15v-85C156.1,306.7,149.4,299.9,141.1,299.9L141.1,299.9z"/>
	</g>
	<g id="XMLID_4536_">
		<g>
			<g>
				<path id="XMLID_16_" fill="#4F8FF4" d="M241,315.1v145.7l-5.1-5.1c-5.9-5.9-15.4-5.9-21.2,0c-5.9,5.9-5.9,15.4,0,21.2l30.7,30.8
					c2.8,2.8,6.6,4.4,10.6,4.4V300.1C247.7,300.1,241,306.8,241,315.1z"/>
			</g>
		</g>
	</g>
	<path id="XMLID_3843_" fill="#3E84F4" d="M225.3,60.8c3.8,0,7.7-1.5,10.6-4.4l5.1-5.1v145.7c0,8.3,6.7,15,15,15s15-6.7,15-15V51.2
		l5.1,5.1c5.9,5.9,15.4,5.9,21.2,0c5.9-5.9,5.9-15.4,0-21.2L266.6,4.4C263.8,1.6,260,0,256,0s-7.8,1.6-10.6,4.4l-30.7,30.8
		c-5.9,5.9-5.9,15.4,0,21.2C217.6,59.3,221.4,60.8,225.3,60.8L225.3,60.8z"/>
	<path id="XMLID_3841_" fill="#4BB972" d="M370.9,212.3c8.3,0,15-6.7,15-15v-70h62.4l-5.4,5.4c-5.9,5.9-5.9,15.4,0,21.2
		c2.9,2.9,6.8,4.4,10.6,4.4c3.8,0,7.7-1.5,10.6-4.4l30.7-30.8c5.9-5.9,5.9-15.4,0-21.2l-30.7-30.8c-5.9-5.9-15.4-5.9-21.2,0
		c-5.9,5.9-5.9,15.4,0,21.2l4.9,4.9h-76.9c-8.3,0-15,6.7-15,15v85C355.9,205.5,362.6,212.3,370.9,212.3L370.9,212.3z"/>
	<path id="XMLID_3840_" fill="#F1C459" d="M141.1,97.2H64.2l4.9-4.9c5.9-5.9,5.9-15.4,0-21.2c-5.9-5.9-15.4-5.9-21.2,0l-30.7,30.8
		c-5.9,5.9-5.9,15.4,0,21.2l30.7,30.8c2.9,2.9,6.8,4.4,10.6,4.4c3.8,0,7.7-1.5,10.6-4.4c5.9-5.9,5.9-15.4,0-21.2l-5.4-5.4h62.4v70
		c0,8.3,6.7,15,15,15s15-6.7,15-15v-85C156.1,103.9,149.4,97.2,141.1,97.2L141.1,97.2z"/>
	<path id="XMLID_3839_" fill="#4F8FF4" d="M245.4,4.4l-30.7,30.8c-5.9,5.9-5.9,15.4,0,21.2c2.9,2.9,6.8,4.4,10.6,4.4
		c3.8,0,7.7-1.5,10.6-4.4l5.1-5.1v145.7c0,8.3,6.7,15,15,15V0C252,0,248.2,1.6,245.4,4.4z"/>
	<g id="XMLID_3836_">
		<path id="XMLID_3837_" fill="#BEC3D2" d="M493.8,329.8H18.2c-8.3,0-15-6.7-15-15V197.3c0-8.3,6.7-15,15-15h475.5
			c8.3,0,15,6.7,15,15v117.5C508.8,323.1,502.1,329.8,493.8,329.8z"/>
	</g>
	<g id="XMLID_4535_">
		<path id="XMLID_3835_" fill="#DCE1EA" d="M18.2,182.3c-8.3,0-15,6.7-15,15v117.5c0,8.3,6.7,15,15,15H256V182.3H18.2z"/>
	</g>
	<g id="XMLID_3826_">
		<g id="XMLID_3833_">
			<ellipse id="XMLID_3834_" fill="#4895FF" cx="68.5" cy="256" rx="15.2" ry="15.2"/>
		</g>
		<g id="XMLID_3831_">
			<g>
				<ellipse id="XMLID_19_" fill="#34365A" cx="120.6" cy="256" rx="15.2" ry="15.2"/>
			</g>
		</g>
		<g id="XMLID_3829_">
			<g>
				<ellipse id="XMLID_18_" fill="#34365A" cx="172.7" cy="256" rx="15.2" ry="15.2"/>
			</g>
		</g>
		<g id="XMLID_3827_">
			<g>
				<ellipse id="XMLID_17_" fill="#D95040" cx="443.5" cy="256" rx="15.2" ry="15.2"/>
			</g>
		</g>
	</g>
</g>
</svg>