<?xml version="1.0" encoding="utf-8"?>
<!-- Generator: Adobe Illustrator 23.1.0, SVG Export Plug-In . SVG Version: 6.00 Build 0)  -->
<svg version="1.0" id="Layer_1" xmlns="http://www.w3.org/2000/svg" xmlns:xlink="http://www.w3.org/1999/xlink" x="0px" y="0px"
	 viewBox="0 0 512 477.9" enable-background="new 0 0 512 477.9" xml:space="preserve">
<polygon fill="#ECE7EA" points="512,56.9 512,477.9 0,477.9 0,56.9 256,34.1 "/>
<polygon fill="#F14742" points="512,0 512,56.9 455.1,56.9 421,28.4 455.1,0 "/>
<rect fill="#EF7C6E" width="455.1" height="56.9"/>
<path fill="#D6CED1" d="M443.7,241.8H68.3c-4.7,0-8.5-3.8-8.5-8.5s3.8-8.5,8.5-8.5h375.5c4.7,0,8.5,3.8,8.5,8.5
	S448.4,241.8,443.7,241.8z"/>
<g>
	<path fill="#8B7E7F" d="M233.2,287.3h-165c-4.7,0-8.5-3.8-8.5-8.5s3.8-8.5,8.5-8.5h165c4.7,0,8.5,3.8,8.5,8.5
		C241.8,283.5,238,287.3,233.2,287.3z"/>
	<path fill="#8B7E7F" d="M233.2,332.8h-165c-4.7,0-8.5-3.8-8.5-8.5s3.8-8.5,8.5-8.5h165c4.7,0,8.5,3.8,8.5,8.5
		S238,332.8,233.2,332.8z"/>
	<path fill="#8B7E7F" d="M233.2,378.3h-165c-4.7,0-8.5-3.8-8.5-8.5s3.8-8.5,8.5-8.5h165c4.7,0,8.5,3.8,8.5,8.5
		C241.8,374.5,238,378.3,233.2,378.3z"/>
</g>
<rect x="278.8" y="278.8" fill="#EFCE43" width="165" height="136.5"/>
<g>
	<path fill="#8B7E7F" d="M233.2,423.8h-165c-4.7,0-8.5-3.8-8.5-8.5s3.8-8.5,8.5-8.5h165c4.7,0,8.5,3.8,8.5,8.5
		S238,423.8,233.2,423.8z"/>
	<path fill="#8B7E7F" d="M395,196.3c-15.4,0-27.3-6.7-31.3-17.6c-1.6-4.4,0.7-9.3,5.1-10.9c4.4-1.6,9.3,0.7,10.9,5.1
		c1.4,3.8,7.5,6.3,15.2,6.3c5.8,0,15.6-1.8,15.6-8.5c0-4.6-2.1-6.2-17-8.6c-6.6-1.1-13.4-2.2-19.2-5.2c-7.9-4.2-12.1-11.2-12.1-20.3
		c0-15.1,13.4-25.6,32.6-25.6c15.4,0,27.3,6.7,31.3,17.5c1.6,4.4-0.7,9.3-5.1,10.9c-4.4,1.6-9.3-0.7-10.9-5.1
		c-1.4-3.8-7.5-6.3-15.2-6.3c-5.8,0-15.6,1.8-15.6,8.5c0,4.6,2.1,6.2,16.9,8.6c6.6,1.1,13.4,2.2,19.2,5.2
		c7.9,4.2,12.1,11.2,12.1,20.3C427.7,185.7,414.3,196.3,395,196.3z"/>
	<path fill="#8B7E7F" d="M319.5,196.3c-3.2,0-6.1-1.8-7.6-4.7l-9.7-19.1l-9.7,19.1c-1.6,3.2-5,5-8.6,4.6c-3.5-0.4-6.5-2.9-7.3-6.4
		l-17.3-68.3c-1.2-4.6,1.6-9.2,6.2-10.4c4.6-1.2,9.2,1.6,10.4,6.2l11.7,46.2l7-13.8c1.5-2.9,4.4-4.7,7.6-4.7s6.2,1.8,7.6,4.7l7,13.8
		l11.7-46.2c1.2-4.6,5.8-7.3,10.4-6.2c4.6,1.2,7.3,5.8,6.2,10.4l-17.3,68.3c-0.9,3.4-3.8,6-7.3,6.4
		C320.1,196.2,319.8,196.3,319.5,196.3z"/>
	<path fill="#8B7E7F" d="M233.5,196.3h-48.2c-4.7,0-8.5-3.8-8.5-8.5v-68.3c0-4.7,3.8-8.5,8.5-8.5h48.2c4.7,0,8.5,3.8,8.5,8.5
		s-3.8,8.5-8.5,8.5h-39.7v51.2h39.7c4.7,0,8.5,3.8,8.5,8.5S238.2,196.3,233.5,196.3z"/>
	<path fill="#8B7E7F" d="M217.4,162.1h-32.1c-4.7,0-8.5-3.8-8.5-8.5s3.8-8.5,8.5-8.5h32.1c4.7,0,8.5,3.8,8.5,8.5
		S222.1,162.1,217.4,162.1z"/>
	<path fill="#8B7E7F" d="M151.1,196.3c-2.4,0-4.8-1.1-6.5-3l-43.2-50.7v45.1c0,4.7-3.8,8.5-8.5,8.5s-8.5-3.8-8.5-8.5v-68.3
		c0-3.6,2.2-6.8,5.6-8s7.1-0.3,9.4,2.5l43.2,50.7v-45.1c0-4.7,3.8-8.5,8.5-8.5s8.5,3.8,8.5,8.5v68.3c0,3.6-2.2,6.8-5.6,8
		C153.1,196.1,152.1,196.3,151.1,196.3z"/>
</g>
</svg>